<svg width="119" height="27" viewBox="0 0 119 27" fill="none" xmlns="http://www.w3.org/2000/svg">
<path d="M3.96 14.284V19H1.746V6.4C2.37 6.4 3.048 6.394 3.78 6.382C4.512 6.37 5.112 6.364 5.58 6.364C8.628 6.364 10.152 7.66 10.152 10.252C10.152 11.212 9.906 12.004 9.414 12.628C8.922 13.228 8.358 13.636 7.722 13.852L11.664 19H8.982L5.508 14.284H3.96ZM5.472 8.434C5.412 8.434 5.316 8.44 5.184 8.452C5.052 8.452 4.866 8.458 4.626 8.47C4.386 8.47 4.164 8.47 3.96 8.47V12.214H5.4C6.108 12.214 6.684 12.04 7.128 11.692C7.584 11.344 7.812 10.87 7.812 10.27C7.812 9.046 7.032 8.434 5.472 8.434ZM18.6154 16.732L19.2094 18.19C18.4054 18.862 17.3734 19.198 16.1134 19.198C14.8174 19.198 13.7614 18.808 12.9454 18.028C12.1534 17.26 11.7574 16.234 11.7574 14.95C11.7574 13.75 12.1474 12.742 12.9274 11.926C13.7074 11.11 14.7454 10.702 16.0414 10.702C17.1094 10.702 18.0154 11.056 18.7594 11.764C19.5034 12.472 19.8754 13.372 19.8754 14.464C19.8754 14.944 19.8334 15.316 19.7494 15.58H13.8994C13.9834 16.168 14.2414 16.63 14.6734 16.966C15.1174 17.302 15.6694 17.47 16.3294 17.47C17.2294 17.47 17.9914 17.224 18.6154 16.732ZM15.9514 12.43C14.7754 12.43 14.0674 13.018 13.8274 14.194H17.8054C17.8174 13.678 17.6494 13.258 17.3014 12.934C16.9654 12.598 16.5154 12.43 15.9514 12.43ZM29.2659 22.6H27.1959V18.586C26.5719 18.994 25.9059 19.198 25.1979 19.198C23.9139 19.198 22.8879 18.814 22.1199 18.046C21.3639 17.266 20.9859 16.234 20.9859 14.95C20.9859 13.738 21.4239 12.73 22.2999 11.926C23.1879 11.11 24.2979 10.702 25.6299 10.702C27.0219 10.702 28.2339 11.026 29.2659 11.674V22.6ZM25.4679 17.272C26.1639 17.272 26.7399 17.026 27.1959 16.534V13.042C26.6559 12.778 26.1279 12.646 25.6119 12.646C24.8679 12.646 24.2799 12.874 23.8479 13.33C23.4159 13.774 23.1999 14.344 23.1999 15.04C23.1999 15.688 23.4039 16.222 23.8119 16.642C24.2319 17.062 24.7839 17.272 25.4679 17.272ZM36.8006 10.9H38.8706V19H36.8006V18.01C36.1526 18.802 35.2886 19.198 34.2086 19.198C33.3446 19.198 32.6546 18.91 32.1386 18.334C31.6226 17.758 31.3646 16.93 31.3646 15.85V10.9H33.4346V15.418C33.4346 16.654 33.9506 17.272 34.9826 17.272C35.6906 17.272 36.2966 16.942 36.8006 16.282V10.9ZM47.5314 16.732L48.1254 18.19C47.3214 18.862 46.2894 19.198 45.0294 19.198C43.7334 19.198 42.6774 18.808 41.8614 18.028C41.0694 17.26 40.6734 16.234 40.6734 14.95C40.6734 13.75 41.0634 12.742 41.8434 11.926C42.6234 11.11 43.6614 10.702 44.9574 10.702C46.0254 10.702 46.9314 11.056 47.6754 11.764C48.4194 12.472 48.7914 13.372 48.7914 14.464C48.7914 14.944 48.7494 15.316 48.6654 15.58H42.8154C42.8994 16.168 43.1574 16.63 43.5894 16.966C44.0334 17.302 44.5854 17.47 45.2454 17.47C46.1454 17.47 46.9074 17.224 47.5314 16.732ZM44.8674 12.43C43.6914 12.43 42.9834 13.018 42.7434 14.194H46.7214C46.7334 13.678 46.5654 13.258 46.2174 12.934C45.8814 12.598 45.4314 12.43 44.8674 12.43ZM50.1886 13.168C50.1886 12.412 50.4646 11.812 51.0166 11.368C51.5686 10.924 52.2826 10.702 53.1586 10.702C54.4786 10.702 55.5046 11.044 56.2366 11.728L55.4626 13.204C54.8026 12.688 54.0706 12.43 53.2666 12.43C52.9786 12.43 52.7386 12.502 52.5466 12.646C52.3546 12.778 52.2586 12.94 52.2586 13.132C52.2586 13.528 52.7686 13.858 53.7886 14.122C54.1606 14.206 54.4906 14.302 54.7786 14.41C55.0666 14.506 55.3606 14.65 55.6606 14.842C55.9726 15.022 56.2126 15.262 56.3806 15.562C56.5486 15.862 56.6326 16.21 56.6326 16.606C56.6326 17.398 56.3326 18.028 55.7326 18.496C55.1446 18.964 54.3526 19.198 53.3566 19.198C52.6486 19.198 51.9586 19.048 51.2866 18.748C50.6026 18.436 50.1646 18.124 49.9726 17.812L50.9806 16.462C51.2086 16.738 51.5866 16.972 52.1146 17.164C52.6546 17.368 53.1166 17.47 53.5006 17.47C53.9686 17.518 54.2986 17.368 54.4906 17.02C54.6826 16.66 54.5566 16.366 54.1126 16.138C53.9326 16.042 53.6506 15.94 53.2666 15.832C52.8946 15.724 52.5466 15.616 52.2226 15.508C51.9106 15.388 51.5866 15.238 51.2506 15.058C50.9266 14.878 50.6686 14.632 50.4766 14.32C50.2846 13.996 50.1886 13.612 50.1886 13.168ZM58.2767 15.922V8.65H60.3467V10.9H62.9567V12.844H60.3467V15.796C60.3467 16.768 60.6707 17.254 61.3187 17.254C61.7267 17.254 62.1407 17.098 62.5607 16.786L63.1907 18.388C62.5307 18.916 61.7327 19.18 60.7967 19.18C59.9207 19.18 59.2787 18.916 58.8707 18.388C58.4747 17.848 58.2767 17.026 58.2767 15.922ZM69.6494 19H69.4964V7.1H69.6834C70.1707 7.1 70.624 7.09433 71.0434 7.083C71.882 7.06033 72.3807 7.049 72.5394 7.049C73.684 7.049 74.6927 7.20767 75.5654 7.525C76.4494 7.831 77.152 8.26167 77.6734 8.817C78.1947 9.361 78.58 9.97867 78.8294 10.67C79.09 11.35 79.2204 12.0867 79.2204 12.88C79.2204 14.6707 78.6254 16.144 77.4354 17.3C76.2567 18.456 74.5794 19.034 72.4034 19.034C71.916 19.034 71.4684 19.0283 71.0604 19.017C70.6524 19.0057 70.182 19 69.6494 19ZM72.5054 7.933C72.256 7.933 71.8877 7.94433 71.4004 7.967C70.9244 7.97833 70.6014 7.984 70.4314 7.984V18.116C70.8054 18.116 71.1567 18.1217 71.4854 18.133C71.814 18.133 72.052 18.1387 72.1994 18.15C72.3467 18.15 72.426 18.15 72.4374 18.15C74.2847 18.15 75.7127 17.6627 76.7214 16.688C77.73 15.702 78.2344 14.4327 78.2344 12.88C78.2344 11.418 77.7527 10.228 76.7894 9.31C75.8147 8.392 74.3867 7.933 72.5054 7.933ZM87.4555 17.385L87.7445 18.065C87.0532 18.7903 86.1125 19.153 84.9225 19.153C83.6985 19.153 82.7182 18.7903 81.9815 18.065C81.2335 17.3397 80.8595 16.3763 80.8595 15.175C80.8595 14.019 81.1995 13.067 81.8795 12.319C82.5709 11.571 83.5229 11.197 84.7355 11.197C85.7215 11.197 86.5489 11.5143 87.2175 12.149C87.8749 12.7723 88.2035 13.6053 88.2035 14.648C88.2035 14.92 88.1865 15.158 88.1525 15.362H81.8455C81.8795 16.28 82.1799 17.0053 82.7465 17.538C83.3132 18.0593 84.0555 18.32 84.9735 18.32C86.0389 18.32 86.8662 18.0083 87.4555 17.385ZM84.6505 12.03C83.8345 12.03 83.1715 12.268 82.6615 12.744C82.1629 13.22 81.8739 13.849 81.7945 14.631H87.3025C87.2912 13.8263 87.0475 13.1917 86.5715 12.727C86.0955 12.2623 85.4552 12.03 84.6505 12.03ZM94.2796 16.994C94.2796 16.6427 94.1323 16.3593 93.8376 16.144C93.5543 15.9287 93.2029 15.7587 92.7836 15.634C92.3756 15.5093 91.9619 15.3733 91.5426 15.226C91.1233 15.0673 90.7663 14.8237 90.4716 14.495C90.1883 14.155 90.0466 13.73 90.0466 13.22C90.0466 12.608 90.2733 12.1207 90.7266 11.758C91.1799 11.384 91.7749 11.197 92.5116 11.197C93.5656 11.197 94.3646 11.4803 94.9086 12.047L94.5346 12.71C94.0133 12.2227 93.3446 11.979 92.5286 11.979C92.0753 11.979 91.7013 12.098 91.4066 12.336C91.1233 12.5627 90.9816 12.8517 90.9816 13.203C90.9816 13.5657 91.1233 13.866 91.4066 14.104C91.7013 14.3307 92.0526 14.512 92.4606 14.648C92.8799 14.7727 93.2993 14.9087 93.7186 15.056C94.1379 15.2033 94.4893 15.4357 94.7726 15.753C95.0673 16.0703 95.2146 16.4727 95.2146 16.96C95.2146 17.6513 94.9539 18.1897 94.4326 18.575C93.9226 18.9603 93.2653 19.153 92.4606 19.153C91.9619 19.153 91.4406 19.0397 90.8966 18.813C90.3866 18.5977 90.0353 18.3427 89.8426 18.048L90.3356 17.47C90.5509 17.7307 90.8739 17.946 91.3046 18.116C91.7466 18.286 92.1659 18.371 92.5626 18.371C93.0613 18.371 93.4693 18.252 93.7866 18.014C94.1153 17.7647 94.2796 17.4247 94.2796 16.994ZM98.7331 19H97.8491V11.35H98.7331V19ZM97.6961 8.375C97.6961 8.205 97.7584 8.069 97.8831 7.967C98.0077 7.865 98.1551 7.814 98.3251 7.814C98.4724 7.814 98.6027 7.87067 98.7161 7.984C98.8407 8.086 98.9031 8.21633 98.9031 8.375C98.9031 8.56767 98.8464 8.72067 98.7331 8.834C98.6311 8.94733 98.4951 9.004 98.3251 9.004C98.1437 9.004 97.9907 8.94733 97.8661 8.834C97.7527 8.72067 97.6961 8.56767 97.6961 8.375ZM100.752 20.122C100.752 19.544 100.956 19.0567 101.364 18.66C101.772 18.2633 102.35 17.9857 103.098 17.827C102.928 17.623 102.843 17.3793 102.843 17.096C102.843 16.8127 102.939 16.5577 103.132 16.331C102.633 16.1157 102.242 15.7927 101.959 15.362C101.675 14.9313 101.534 14.444 101.534 13.9C101.534 13.118 101.811 12.472 102.367 11.962C102.922 11.452 103.653 11.197 104.56 11.197C105.285 11.197 105.925 11.3897 106.481 11.775H106.498L108.674 11.197V12.03L107.127 12.421C107.433 12.8857 107.586 13.3787 107.586 13.9C107.586 14.6593 107.302 15.3053 106.736 15.838C106.169 16.348 105.444 16.603 104.56 16.603C104.242 16.603 103.987 16.5803 103.795 16.535C103.693 16.6823 103.642 16.8693 103.642 17.096C103.642 17.3567 103.715 17.5607 103.863 17.708C104.293 17.6853 104.531 17.674 104.577 17.674C105.744 17.674 106.673 17.8893 107.365 18.32C108.056 18.7507 108.402 19.3513 108.402 20.122C108.402 20.8813 108.056 21.4707 107.365 21.89C106.673 22.3207 105.744 22.536 104.577 22.536C103.398 22.536 102.463 22.3263 101.772 21.907C101.092 21.4877 100.752 20.8927 100.752 20.122ZM101.653 20.122C101.653 20.6207 101.913 21.0117 102.435 21.295C102.967 21.5897 103.681 21.737 104.577 21.737C105.461 21.737 106.169 21.5897 106.702 21.295C107.234 21.0003 107.501 20.6093 107.501 20.122C107.501 19.6233 107.234 19.2267 106.702 18.932C106.18 18.626 105.472 18.473 104.577 18.473C103.693 18.473 102.984 18.6203 102.452 18.915C101.919 19.2097 101.653 19.612 101.653 20.122ZM103.03 12.54C102.633 12.9027 102.435 13.356 102.435 13.9C102.435 14.444 102.633 14.8973 103.03 15.26C103.426 15.6227 103.936 15.804 104.56 15.804C105.183 15.804 105.693 15.6227 106.09 15.26C106.486 14.8973 106.685 14.444 106.685 13.9C106.685 13.356 106.481 12.9027 106.073 12.54C105.676 12.1773 105.172 11.996 104.56 11.996C103.959 11.996 103.449 12.1773 103.03 12.54ZM111.075 19H110.191V11.35H111.075V12.421C111.392 12.0697 111.8 11.7807 112.299 11.554C112.809 11.3273 113.319 11.214 113.829 11.214C114.894 11.214 115.693 11.4917 116.226 12.047C116.758 12.6023 117.025 13.4637 117.025 14.631V19H116.141V14.801C116.141 12.965 115.302 12.047 113.625 12.047C113.137 12.047 112.661 12.1603 112.197 12.387C111.732 12.6023 111.358 12.88 111.075 13.22V19Z" fill="#2B2E34"/>
</svg>
